<svg width="512" height="520" viewBox="0 0 512 520" fill="none" xmlns="http://www.w3.org/2000/svg">
<rect y="8" width="512" height="512" fill="white"/>
<path d="M246.6 403.2C221.533 403.2 201.133 399.733 185.4 392.8C169.667 385.867 158.067 376.933 150.6 366C143.133 354.8 139.4 342.933 139.4 330.4C139.4 314.667 144.467 300.4 154.6 287.6C165 274.8 178.733 265.067 195.8 258.4C183.533 249.6 173.133 239.733 164.6 228.8C156.067 217.867 151.8 204.933 151.8 190C151.8 176.133 155.667 163.733 163.4 152.8C171.4 141.6 183.133 132.8 198.6 126.4C214.333 119.733 233.667 116.4 256.6 116.4C279.533 116.4 297.667 119.6 311 126C324.6 132.133 334.333 139.867 340.2 149.2C346.333 158.533 349.4 168.133 349.4 178C349.4 190.8 344.733 202.4 335.4 212.8C326.333 222.933 315 231.467 301.4 238.4C323.533 249.867 339.667 262.533 349.8 276.4C359.933 290 365 304.933 365 321.2C365 336.933 360.333 351.067 351 363.6C341.667 375.867 328.2 385.6 310.6 392.8C293 399.733 271.667 403.2 246.6 403.2ZM270.6 225.2C290.6 212.4 300.6 196.933 300.6 178.8C300.6 168.933 297.267 160.533 290.6 153.6C284.2 146.667 274.067 143.2 260.2 143.2C247.667 143.2 237.133 146.133 228.6 152C220.067 157.6 215.8 165.067 215.8 174.4C215.8 182.4 219.8 190.667 227.8 199.2C236.067 207.467 250.333 216.133 270.6 225.2ZM246.2 373.6C260.867 373.6 272.867 370.133 282.2 363.2C291.533 356 296.2 346.667 296.2 335.2C296.2 328 294.067 321.067 289.8 314.4C285.8 307.733 278.6 301.2 268.2 294.8C257.8 288.4 243.267 282 224.6 275.6C214.467 280.667 206.6 287.6 201 296.4C195.4 304.933 192.6 314.267 192.6 324.4C192.6 338.267 197.4 350 207 359.6C216.6 368.933 229.667 373.6 246.2 373.6Z" fill="black"/>
</svg>
