<svg width="512" height="520" viewBox="0 0 512 520" fill="none" xmlns="http://www.w3.org/2000/svg">
<rect y="8" width="512" height="512" fill="white"/>
<path d="M243 404.4C216.333 404.4 194.867 399.2 178.6 388.8C162.6 378.4 154.6 363.867 154.6 345.2C154.6 334.267 157.533 325.6 163.4 319.2C169.533 312.533 177.933 309.2 188.6 309.2C196.867 309.2 204.2 311.6 210.6 316.4C217.267 320.933 220.6 327.867 220.6 337.2C220.6 342.533 219.267 347.467 216.6 352C213.933 356.533 209.267 360 202.6 362.4C206.867 367.467 212.067 370.8 218.2 372.4C224.6 374 231.4 374.8 238.6 374.8C257.267 374.8 270.333 367.2 277.8 352C285.267 336.8 289 314.533 289 285.2V276C281.8 281.6 273.133 286 263 289.2C253.133 292.133 242.467 293.6 231 293.6C214.2 293.6 199 290.133 185.4 283.2C171.8 276.267 161 266.4 153 253.6C145 240.8 141 225.6 141 208C141 192 145.267 177.067 153.8 163.2C162.6 149.067 175 137.733 191 129.2C207 120.667 225.933 116.4 247.8 116.4C275 116.4 296.733 122.533 313 134.8C329.533 147.067 341.4 164 348.6 185.6C356.067 206.933 359.8 231.733 359.8 260C359.8 289.867 354.867 315.6 345 337.2C335.133 358.8 321.4 375.467 303.8 387.2C286.467 398.667 266.2 404.4 243 404.4ZM205.8 200.4C205.8 220.933 210.6 236.133 220.2 246C230.067 255.867 241.533 260.8 254.6 260.8C262.067 260.8 268.867 259.6 275 257.2C281.4 254.533 286.333 250.667 289.8 245.6C290.067 240.533 290.2 235.6 290.2 230.8C290.2 207.067 287.933 189.067 283.4 176.8C279.133 164.267 273.667 155.733 267 151.2C260.333 146.667 253.8 144.4 247.4 144.4C241 144.4 234.6 146 228.2 149.2C221.8 152.133 216.467 157.733 212.2 166C207.933 174 205.8 185.467 205.8 200.4Z" fill="black"/>
</svg>
